<svg width="40" height="41" viewBox="0 0 40 41" fill="none" xmlns="http://www.w3.org/2000/svg">
<g clip-path="url(#clip0_1_45)">
<path d="M1.66666 2.16669H8.33333L12.8 24.4834C12.9524 25.2507 13.3698 25.94 13.9792 26.4305C14.5886 26.9211 15.3512 27.1817 16.1333 27.1667H32.3333C33.1155 27.1817 33.878 26.9211 34.4874 26.4305C35.0968 25.94 35.5143 25.2507 35.6667 24.4834L38.3333 10.5H10M16.6667 35.5C16.6667 36.4205 15.9205 37.1667 15 37.1667C14.0795 37.1667 13.3333 36.4205 13.3333 35.5C13.3333 34.5795 14.0795 33.8334 15 33.8334C15.9205 33.8334 16.6667 34.5795 16.6667 35.5ZM35 35.5C35 36.4205 34.2538 37.1667 33.3333 37.1667C32.4129 37.1667 31.6667 36.4205 31.6667 35.5C31.6667 34.5795 32.4129 33.8334 33.3333 33.8334C34.2538 33.8334 35 34.5795 35 35.5Z" stroke="#F5F5F5" stroke-width="4" stroke-linecap="round" stroke-linejoin="round"/>
</g>
<defs>
<clipPath id="clip0_1_45">
<rect width="40" height="40" fill="white" transform="translate(0 0.5)"/>
</clipPath>
</defs>
</svg>
