<svg width="928" height="464" viewBox="0 0 928 464" fill="none" xmlns="http://www.w3.org/2000/svg">
<path d="M200 2H791.333C865.707 2 926 62.2926 926 136.667C926 286.52 804.52 408 654.667 408H16C8.26802 408 2 401.732 2 394V200C2 90.6476 90.6476 2 200 2Z" fill="#A21D1D" stroke="white" stroke-width="4"/>
<path d="M556.284 217.435C555.04 217.435 553.915 217.205 552.909 216.744C551.903 216.276 551.107 215.598 550.518 214.712C549.939 213.825 549.649 212.739 549.649 211.452C549.649 210.344 549.862 209.432 550.288 208.716C550.714 208 551.29 207.433 552.014 207.016C552.739 206.598 553.548 206.283 554.443 206.07C555.338 205.857 556.25 205.695 557.179 205.584C558.355 205.447 559.31 205.337 560.043 205.251C560.776 205.158 561.308 205.009 561.641 204.804C561.973 204.599 562.139 204.267 562.139 203.807V203.717C562.139 202.601 561.824 201.736 561.193 201.122C560.571 200.509 559.642 200.202 558.406 200.202C557.119 200.202 556.105 200.487 555.364 201.058C554.631 201.621 554.124 202.247 553.842 202.938L550.25 202.119C550.676 200.926 551.298 199.963 552.116 199.23C552.943 198.489 553.893 197.952 554.967 197.619C556.041 197.278 557.17 197.108 558.355 197.108C559.139 197.108 559.97 197.202 560.848 197.389C561.734 197.568 562.561 197.901 563.328 198.386C564.104 198.872 564.739 199.567 565.233 200.47C565.727 201.365 565.974 202.528 565.974 203.96V217H562.241V214.315H562.088C561.841 214.81 561.47 215.295 560.976 215.773C560.482 216.25 559.847 216.646 559.071 216.962C558.295 217.277 557.366 217.435 556.284 217.435ZM557.115 214.366C558.172 214.366 559.075 214.158 559.825 213.74C560.584 213.322 561.159 212.777 561.551 212.104C561.952 211.422 562.152 210.693 562.152 209.918V207.386C562.016 207.523 561.751 207.651 561.359 207.77C560.976 207.881 560.537 207.979 560.043 208.064C559.548 208.141 559.067 208.213 558.598 208.281C558.129 208.341 557.737 208.392 557.422 208.435C556.68 208.528 556.003 208.686 555.389 208.908C554.784 209.129 554.298 209.449 553.932 209.866C553.574 210.276 553.395 210.821 553.395 211.503C553.395 212.449 553.744 213.165 554.443 213.651C555.142 214.128 556.033 214.366 557.115 214.366ZM574.168 205.341V217H570.346V197.364H574.015V200.56H574.258C574.709 199.52 575.417 198.685 576.38 198.054C577.351 197.423 578.574 197.108 580.049 197.108C581.387 197.108 582.559 197.389 583.564 197.952C584.57 198.506 585.35 199.332 585.904 200.432C586.458 201.531 586.735 202.891 586.735 204.51V217H582.912V204.97C582.912 203.547 582.542 202.435 581.8 201.634C581.059 200.824 580.04 200.419 578.745 200.419C577.858 200.419 577.07 200.611 576.38 200.994C575.698 201.378 575.157 201.94 574.756 202.682C574.364 203.415 574.168 204.301 574.168 205.341ZM598.492 217.384C596.907 217.384 595.492 216.979 594.248 216.169C593.012 215.351 592.04 214.187 591.333 212.679C590.634 211.162 590.285 209.342 590.285 207.22C590.285 205.098 590.638 203.283 591.346 201.774C592.062 200.266 593.042 199.111 594.286 198.31C595.531 197.509 596.941 197.108 598.518 197.108C599.736 197.108 600.717 197.312 601.458 197.722C602.208 198.122 602.788 198.591 603.197 199.128C603.614 199.665 603.938 200.138 604.168 200.547H604.398V190.818H608.221V217H604.488V213.945H604.168C603.938 214.362 603.606 214.839 603.171 215.376C602.745 215.913 602.157 216.382 601.407 216.783C600.657 217.183 599.685 217.384 598.492 217.384ZM599.336 214.124C600.435 214.124 601.364 213.834 602.123 213.254C602.89 212.666 603.469 211.852 603.861 210.812C604.262 209.773 604.462 208.562 604.462 207.182C604.462 205.818 604.266 204.625 603.874 203.602C603.482 202.58 602.907 201.783 602.148 201.212C601.39 200.641 600.452 200.355 599.336 200.355C598.185 200.355 597.227 200.653 596.46 201.25C595.692 201.847 595.113 202.661 594.721 203.692C594.337 204.723 594.146 205.886 594.146 207.182C594.146 208.494 594.342 209.675 594.734 210.723C595.126 211.771 595.705 212.602 596.472 213.216C597.248 213.821 598.202 214.124 599.336 214.124ZM630.035 217.396C628.135 217.396 626.498 216.966 625.126 216.105C623.762 215.236 622.714 214.038 621.981 212.513C621.248 210.987 620.882 209.24 620.882 207.271C620.882 205.277 621.257 203.517 622.007 201.991C622.757 200.457 623.814 199.26 625.177 198.399C626.541 197.538 628.147 197.108 629.997 197.108C631.488 197.108 632.818 197.385 633.985 197.939C635.153 198.484 636.095 199.251 636.811 200.24C637.535 201.229 637.966 202.384 638.102 203.705H634.382C634.177 202.784 633.708 201.991 632.975 201.327C632.251 200.662 631.279 200.33 630.061 200.33C628.995 200.33 628.062 200.611 627.261 201.173C626.468 201.727 625.85 202.52 625.407 203.551C624.964 204.574 624.743 205.784 624.743 207.182C624.743 208.614 624.96 209.849 625.395 210.889C625.829 211.929 626.443 212.734 627.235 213.305C628.037 213.876 628.978 214.162 630.061 214.162C630.785 214.162 631.441 214.03 632.029 213.766C632.626 213.493 633.125 213.105 633.525 212.602C633.934 212.099 634.22 211.494 634.382 210.787H638.102C637.966 212.057 637.552 213.19 636.862 214.188C636.171 215.185 635.247 215.969 634.088 216.54C632.937 217.111 631.586 217.396 630.035 217.396ZM649.741 217.396C647.9 217.396 646.293 216.974 644.921 216.131C643.549 215.287 642.484 214.107 641.725 212.589C640.967 211.072 640.588 209.3 640.588 207.271C640.588 205.234 640.967 203.453 641.725 201.928C642.484 200.402 643.549 199.217 644.921 198.374C646.293 197.53 647.9 197.108 649.741 197.108C651.582 197.108 653.188 197.53 654.561 198.374C655.933 199.217 656.998 200.402 657.757 201.928C658.515 203.453 658.894 205.234 658.894 207.271C658.894 209.3 658.515 211.072 657.757 212.589C656.998 214.107 655.933 215.287 654.561 216.131C653.188 216.974 651.582 217.396 649.741 217.396ZM649.754 214.188C650.947 214.188 651.936 213.872 652.72 213.241C653.504 212.611 654.083 211.771 654.458 210.723C654.842 209.675 655.034 208.52 655.034 207.259C655.034 206.006 654.842 204.855 654.458 203.807C654.083 202.75 653.504 201.902 652.72 201.263C651.936 200.624 650.947 200.304 649.754 200.304C648.552 200.304 647.555 200.624 646.762 201.263C645.978 201.902 645.394 202.75 645.011 203.807C644.636 204.855 644.448 206.006 644.448 207.259C644.448 208.52 644.636 209.675 645.011 210.723C645.394 211.771 645.978 212.611 646.762 213.241C647.555 213.872 648.552 214.188 649.754 214.188ZM674.88 208.857V197.364H678.715V217H674.957V213.599H674.752C674.3 214.648 673.576 215.521 672.579 216.22C671.59 216.911 670.359 217.256 668.884 217.256C667.623 217.256 666.506 216.979 665.535 216.425C664.572 215.862 663.813 215.031 663.259 213.932C662.714 212.832 662.441 211.473 662.441 209.854V197.364H666.263V209.393C666.263 210.732 666.634 211.797 667.376 212.589C668.117 213.382 669.08 213.778 670.265 213.778C670.981 213.778 671.692 213.599 672.4 213.241C673.116 212.884 673.708 212.342 674.177 211.618C674.654 210.893 674.888 209.973 674.88 208.857ZM686.954 205.341V217H683.131V197.364H686.8V200.56H687.043C687.495 199.52 688.202 198.685 689.165 198.054C690.137 197.423 691.36 197.108 692.834 197.108C694.172 197.108 695.344 197.389 696.35 197.952C697.356 198.506 698.135 199.332 698.689 200.432C699.243 201.531 699.52 202.891 699.52 204.51V217H695.698V204.97C695.698 203.547 695.327 202.435 694.586 201.634C693.844 200.824 692.826 200.419 691.53 200.419C690.644 200.419 689.856 200.611 689.165 200.994C688.483 201.378 687.942 201.94 687.542 202.682C687.15 203.415 686.954 204.301 686.954 205.341ZM713.093 197.364V200.432H702.367V197.364H713.093ZM705.244 192.659H709.066V211.234C709.066 211.976 709.177 212.534 709.398 212.909C709.62 213.276 709.905 213.527 710.255 213.663C710.613 213.791 711.001 213.855 711.418 213.855C711.725 213.855 711.994 213.834 712.224 213.791C712.454 213.749 712.633 213.714 712.761 213.689L713.451 216.847C713.229 216.932 712.914 217.017 712.505 217.102C712.096 217.196 711.584 217.247 710.971 217.256C709.965 217.273 709.028 217.094 708.158 216.719C707.289 216.344 706.586 215.764 706.049 214.98C705.512 214.196 705.244 213.212 705.244 212.027V192.659ZM716.601 217V197.364H720.424V217H716.601ZM718.532 194.334C717.867 194.334 717.296 194.112 716.819 193.669C716.35 193.217 716.116 192.68 716.116 192.058C716.116 191.428 716.35 190.891 716.819 190.447C717.296 189.996 717.867 189.77 718.532 189.77C719.196 189.77 719.763 189.996 720.232 190.447C720.709 190.891 720.948 191.428 720.948 192.058C720.948 192.68 720.709 193.217 720.232 193.669C719.763 194.112 719.196 194.334 718.532 194.334ZM728.669 205.341V217H724.846V197.364H728.515V200.56H728.758C729.21 199.52 729.917 198.685 730.88 198.054C731.852 197.423 733.075 197.108 734.549 197.108C735.887 197.108 737.059 197.389 738.065 197.952C739.071 198.506 739.85 199.332 740.404 200.432C740.958 201.531 741.235 202.891 741.235 204.51V217H737.413V204.97C737.413 203.547 737.042 202.435 736.301 201.634C735.559 200.824 734.541 200.419 733.245 200.419C732.359 200.419 731.571 200.611 730.88 200.994C730.198 201.378 729.657 201.94 729.257 202.682C728.865 203.415 728.669 204.301 728.669 205.341ZM753.875 224.773C752.315 224.773 750.973 224.568 749.848 224.159C748.731 223.75 747.819 223.209 747.112 222.536C746.405 221.862 745.876 221.125 745.527 220.324L748.812 218.969C749.042 219.344 749.349 219.74 749.733 220.158C750.125 220.584 750.653 220.946 751.318 221.244C751.991 221.543 752.856 221.692 753.913 221.692C755.362 221.692 756.559 221.338 757.505 220.631C758.451 219.932 758.924 218.815 758.924 217.281V213.42H758.682C758.451 213.838 758.119 214.303 757.684 214.814C757.258 215.325 756.67 215.768 755.92 216.143C755.17 216.518 754.194 216.706 752.993 216.706C751.442 216.706 750.044 216.344 748.799 215.619C747.564 214.886 746.584 213.808 745.859 212.385C745.143 210.953 744.785 209.193 744.785 207.105C744.785 205.017 745.139 203.227 745.846 201.736C746.562 200.244 747.542 199.102 748.787 198.31C750.031 197.509 751.442 197.108 753.018 197.108C754.237 197.108 755.221 197.312 755.971 197.722C756.721 198.122 757.305 198.591 757.723 199.128C758.149 199.665 758.477 200.138 758.707 200.547H758.988V197.364H762.734V217.435C762.734 219.122 762.342 220.507 761.558 221.589C760.774 222.672 759.713 223.473 758.375 223.993C757.045 224.513 755.545 224.773 753.875 224.773ZM753.836 213.536C754.936 213.536 755.865 213.28 756.623 212.768C757.39 212.249 757.97 211.507 758.362 210.544C758.763 209.572 758.963 208.409 758.963 207.054C758.963 205.733 758.767 204.57 758.375 203.564C757.983 202.558 757.407 201.774 756.649 201.212C755.89 200.641 754.953 200.355 753.836 200.355C752.686 200.355 751.727 200.653 750.96 201.25C750.193 201.838 749.613 202.639 749.221 203.653C748.838 204.668 748.646 205.801 748.646 207.054C748.646 208.341 748.842 209.47 749.234 210.442C749.626 211.413 750.206 212.172 750.973 212.717C751.748 213.263 752.703 213.536 753.836 213.536ZM769.659 217.243C768.96 217.243 768.359 216.996 767.856 216.501C767.354 215.999 767.102 215.393 767.102 214.686C767.102 213.987 767.354 213.391 767.856 212.896C768.359 212.393 768.96 212.142 769.659 212.142C770.358 212.142 770.959 212.393 771.462 212.896C771.964 213.391 772.216 213.987 772.216 214.686C772.216 215.155 772.097 215.585 771.858 215.977C771.628 216.361 771.321 216.668 770.937 216.898C770.554 217.128 770.128 217.243 769.659 217.243ZM779.134 217.243C778.435 217.243 777.835 216.996 777.332 216.501C776.829 215.999 776.577 215.393 776.577 214.686C776.577 213.987 776.829 213.391 777.332 212.896C777.835 212.393 778.435 212.142 779.134 212.142C779.833 212.142 780.434 212.393 780.937 212.896C781.44 213.391 781.691 213.987 781.691 214.686C781.691 215.155 781.572 215.585 781.333 215.977C781.103 216.361 780.796 216.668 780.413 216.898C780.029 217.128 779.603 217.243 779.134 217.243ZM788.61 217.243C787.911 217.243 787.31 216.996 786.807 216.501C786.304 215.999 786.053 215.393 786.053 214.686C786.053 213.987 786.304 213.391 786.807 212.896C787.31 212.393 787.911 212.142 788.61 212.142C789.308 212.142 789.909 212.393 790.412 212.896C790.915 213.391 791.166 213.987 791.166 214.686C791.166 215.155 791.047 215.585 790.808 215.977C790.578 216.361 790.272 216.668 789.888 216.898C789.505 217.128 789.078 217.243 788.61 217.243Z" fill="#E5E5E5"/>
<path d="M152.023 120.455V167H142.182V129.795H141.909L131.25 136.477V127.75L142.773 120.455H152.023ZM178.805 167.636C175.593 167.636 172.729 167.045 170.214 165.864C167.714 164.682 165.729 163.053 164.26 160.977C162.79 158.902 162.025 156.523 161.964 153.841H171.51C171.616 155.644 172.373 157.106 173.782 158.227C175.192 159.348 176.866 159.909 178.805 159.909C180.351 159.909 181.714 159.568 182.896 158.886C184.093 158.189 185.025 157.227 185.692 156C186.373 154.758 186.714 153.333 186.714 151.727C186.714 150.091 186.366 148.652 185.669 147.409C184.987 146.167 184.04 145.197 182.828 144.5C181.616 143.803 180.229 143.447 178.669 143.432C177.305 143.432 175.979 143.712 174.692 144.273C173.419 144.833 172.426 145.598 171.714 146.568L162.964 145L165.169 120.455H193.623V128.5H173.282L172.078 140.159H172.351C173.169 139.008 174.404 138.053 176.055 137.295C177.707 136.538 179.555 136.159 181.601 136.159C184.404 136.159 186.904 136.818 189.101 138.136C191.298 139.455 193.032 141.265 194.305 143.568C195.578 145.856 196.207 148.492 196.192 151.477C196.207 154.614 195.479 157.402 194.01 159.841C192.555 162.265 190.517 164.174 187.896 165.568C185.29 166.947 182.26 167.636 178.805 167.636ZM221.376 180.091C220.149 180.091 218.997 179.992 217.921 179.795C216.861 179.614 215.982 179.379 215.285 179.091L217.467 171.864C218.603 172.212 219.626 172.402 220.535 172.432C221.459 172.462 222.255 172.25 222.921 171.795C223.603 171.341 224.156 170.568 224.58 169.477L225.149 168L212.626 132.091H222.808L230.035 157.727H230.399L237.694 132.091H247.944L234.376 170.773C233.724 172.652 232.838 174.288 231.717 175.682C230.611 177.091 229.209 178.174 227.512 178.932C225.815 179.705 223.77 180.091 221.376 180.091ZM266.403 167.682C262.812 167.682 259.721 166.955 257.13 165.5C254.554 164.03 252.569 161.955 251.175 159.273C249.782 156.576 249.085 153.386 249.085 149.705C249.085 146.114 249.782 142.962 251.175 140.25C252.569 137.538 254.532 135.424 257.062 133.909C259.607 132.394 262.592 131.636 266.016 131.636C268.319 131.636 270.463 132.008 272.448 132.75C274.448 133.477 276.191 134.576 277.675 136.045C279.175 137.515 280.342 139.364 281.175 141.591C282.009 143.803 282.425 146.394 282.425 149.364V152.023H252.948V146.023H273.312C273.312 144.629 273.009 143.394 272.403 142.318C271.797 141.242 270.956 140.402 269.88 139.795C268.819 139.174 267.585 138.864 266.175 138.864C264.706 138.864 263.403 139.205 262.266 139.886C261.145 140.553 260.266 141.455 259.63 142.591C258.994 143.712 258.668 144.962 258.653 146.341V152.045C258.653 153.773 258.971 155.265 259.607 156.523C260.259 157.78 261.175 158.75 262.357 159.432C263.539 160.114 264.941 160.455 266.562 160.455C267.638 160.455 268.622 160.303 269.516 160C270.41 159.697 271.175 159.242 271.812 158.636C272.448 158.03 272.933 157.288 273.266 156.409L282.221 157C281.766 159.152 280.835 161.03 279.425 162.636C278.032 164.227 276.228 165.47 274.016 166.364C271.819 167.242 269.282 167.682 266.403 167.682ZM297.418 167.659C295.191 167.659 293.206 167.273 291.464 166.5C289.721 165.712 288.342 164.553 287.327 163.023C286.327 161.477 285.827 159.553 285.827 157.25C285.827 155.311 286.183 153.682 286.895 152.364C287.608 151.045 288.577 149.985 289.805 149.182C291.032 148.379 292.426 147.773 293.986 147.364C295.562 146.955 297.214 146.667 298.941 146.5C300.971 146.288 302.608 146.091 303.85 145.909C305.092 145.712 305.994 145.424 306.555 145.045C307.115 144.667 307.395 144.106 307.395 143.364V143.227C307.395 141.788 306.941 140.674 306.032 139.886C305.138 139.098 303.865 138.705 302.214 138.705C300.471 138.705 299.085 139.091 298.055 139.864C297.024 140.621 296.342 141.576 296.009 142.727L287.055 142C287.509 139.879 288.403 138.045 289.736 136.5C291.07 134.939 292.789 133.742 294.895 132.909C297.017 132.061 299.471 131.636 302.259 131.636C304.198 131.636 306.055 131.864 307.827 132.318C309.615 132.773 311.198 133.477 312.577 134.432C313.971 135.386 315.07 136.614 315.873 138.114C316.676 139.598 317.077 141.379 317.077 143.455V167H307.895V162.159H307.623C307.062 163.25 306.312 164.212 305.373 165.045C304.433 165.864 303.305 166.508 301.986 166.977C300.668 167.432 299.145 167.659 297.418 167.659ZM300.191 160.977C301.615 160.977 302.873 160.697 303.964 160.136C305.055 159.561 305.911 158.788 306.532 157.818C307.153 156.848 307.464 155.75 307.464 154.523V150.818C307.161 151.015 306.744 151.197 306.214 151.364C305.698 151.515 305.115 151.659 304.464 151.795C303.812 151.917 303.161 152.03 302.509 152.136C301.858 152.227 301.267 152.311 300.736 152.386C299.6 152.553 298.608 152.818 297.759 153.182C296.911 153.545 296.252 154.038 295.782 154.659C295.312 155.265 295.077 156.023 295.077 156.932C295.077 158.25 295.555 159.258 296.509 159.955C297.479 160.636 298.706 160.977 300.191 160.977ZM323.309 167V132.091H332.695V138.182H333.059C333.695 136.015 334.763 134.379 336.263 133.273C337.763 132.152 339.49 131.591 341.445 131.591C341.93 131.591 342.453 131.621 343.013 131.682C343.574 131.742 344.066 131.826 344.49 131.932V140.523C344.036 140.386 343.407 140.265 342.604 140.159C341.801 140.053 341.066 140 340.4 140C338.975 140 337.703 140.311 336.581 140.932C335.475 141.538 334.597 142.386 333.945 143.477C333.309 144.568 332.99 145.826 332.99 147.25V167H323.309ZM377.262 142.045L368.398 142.591C368.246 141.833 367.921 141.152 367.421 140.545C366.921 139.924 366.262 139.432 365.443 139.068C364.64 138.689 363.678 138.5 362.557 138.5C361.057 138.5 359.792 138.818 358.762 139.455C357.731 140.076 357.216 140.909 357.216 141.955C357.216 142.788 357.549 143.492 358.216 144.068C358.883 144.644 360.027 145.106 361.648 145.455L367.966 146.727C371.36 147.424 373.89 148.545 375.557 150.091C377.224 151.636 378.057 153.667 378.057 156.182C378.057 158.47 377.383 160.477 376.034 162.205C374.701 163.932 372.868 165.28 370.534 166.25C368.216 167.205 365.542 167.682 362.512 167.682C357.89 167.682 354.209 166.72 351.466 164.795C348.739 162.856 347.14 160.22 346.671 156.886L356.193 156.386C356.481 157.795 357.178 158.871 358.284 159.614C359.39 160.341 360.807 160.705 362.534 160.705C364.231 160.705 365.595 160.379 366.625 159.727C367.671 159.061 368.201 158.205 368.216 157.159C368.201 156.28 367.83 155.561 367.102 155C366.375 154.424 365.254 153.985 363.739 153.682L357.693 152.477C354.284 151.795 351.746 150.614 350.08 148.932C348.428 147.25 347.602 145.106 347.602 142.5C347.602 140.258 348.209 138.326 349.421 136.705C350.648 135.083 352.368 133.833 354.58 132.955C356.807 132.076 359.413 131.636 362.398 131.636C366.807 131.636 370.277 132.568 372.807 134.432C375.352 136.295 376.837 138.833 377.262 142.045ZM412.179 167.682C408.649 167.682 405.596 166.932 403.02 165.432C400.459 163.917 398.482 161.811 397.088 159.114C395.694 156.402 394.997 153.258 394.997 149.682C394.997 146.076 395.694 142.924 397.088 140.227C398.482 137.515 400.459 135.409 403.02 133.909C405.596 132.394 408.649 131.636 412.179 131.636C415.709 131.636 418.755 132.394 421.315 133.909C423.891 135.409 425.876 137.515 427.27 140.227C428.664 142.924 429.361 146.076 429.361 149.682C429.361 153.258 428.664 156.402 427.27 159.114C425.876 161.811 423.891 163.917 421.315 165.432C418.755 166.932 415.709 167.682 412.179 167.682ZM412.224 160.182C413.83 160.182 415.171 159.727 416.247 158.818C417.323 157.894 418.133 156.636 418.679 155.045C419.239 153.455 419.52 151.644 419.52 149.614C419.52 147.583 419.239 145.773 418.679 144.182C418.133 142.591 417.323 141.333 416.247 140.409C415.171 139.485 413.83 139.023 412.224 139.023C410.603 139.023 409.239 139.485 408.133 140.409C407.043 141.333 406.217 142.591 405.656 144.182C405.111 145.773 404.838 147.583 404.838 149.614C404.838 151.644 405.111 153.455 405.656 155.045C406.217 156.636 407.043 157.894 408.133 158.818C409.239 159.727 410.603 160.182 412.224 160.182ZM453.149 132.091V139.364H431.603V132.091H453.149ZM436.535 167V129.568C436.535 127.038 437.028 124.939 438.013 123.273C439.013 121.606 440.376 120.356 442.103 119.523C443.831 118.689 445.793 118.273 447.99 118.273C449.475 118.273 450.831 118.386 452.058 118.614C453.3 118.841 454.225 119.045 454.831 119.227L453.103 126.5C452.725 126.379 452.255 126.265 451.694 126.159C451.149 126.053 450.588 126 450.013 126C448.588 126 447.596 126.333 447.035 127C446.475 127.652 446.194 128.568 446.194 129.75V167H436.535ZM487.225 167.682C483.634 167.682 480.543 166.955 477.953 165.5C475.377 164.03 473.392 161.955 471.998 159.273C470.604 156.576 469.907 153.386 469.907 149.705C469.907 146.114 470.604 142.962 471.998 140.25C473.392 137.538 475.354 135.424 477.884 133.909C480.43 132.394 483.415 131.636 486.839 131.636C489.142 131.636 491.286 132.008 493.271 132.75C495.271 133.477 497.013 134.576 498.498 136.045C499.998 137.515 501.165 139.364 501.998 141.591C502.831 143.803 503.248 146.394 503.248 149.364V152.023H473.771V146.023H494.134C494.134 144.629 493.831 143.394 493.225 142.318C492.619 141.242 491.778 140.402 490.703 139.795C489.642 139.174 488.407 138.864 486.998 138.864C485.528 138.864 484.225 139.205 483.089 139.886C481.968 140.553 481.089 141.455 480.453 142.591C479.816 143.712 479.49 144.962 479.475 146.341V152.045C479.475 153.773 479.793 155.265 480.43 156.523C481.081 157.78 481.998 158.75 483.18 159.432C484.362 160.114 485.763 160.455 487.384 160.455C488.46 160.455 489.445 160.303 490.339 160C491.233 159.697 491.998 159.242 492.634 158.636C493.271 158.03 493.756 157.288 494.089 156.409L503.043 157C502.589 159.152 501.657 161.03 500.248 162.636C498.854 164.227 497.051 165.47 494.839 166.364C492.642 167.242 490.104 167.682 487.225 167.682ZM515.752 132.091L522.161 144.295L528.729 132.091H538.661L528.547 149.545L538.934 167H529.047L522.161 154.932L515.388 167H505.388L515.752 149.545L505.752 132.091H515.752ZM557.654 167.682C554.078 167.682 551.002 166.924 548.427 165.409C545.866 163.879 543.896 161.758 542.517 159.045C541.154 156.333 540.472 153.212 540.472 149.682C540.472 146.106 541.161 142.97 542.54 140.273C543.934 137.561 545.911 135.447 548.472 133.932C551.033 132.402 554.078 131.636 557.608 131.636C560.654 131.636 563.321 132.189 565.608 133.295C567.896 134.402 569.707 135.955 571.04 137.955C572.374 139.955 573.108 142.303 573.245 145H564.108C563.851 143.258 563.169 141.856 562.063 140.795C560.972 139.72 559.54 139.182 557.767 139.182C556.267 139.182 554.957 139.591 553.836 140.409C552.73 141.212 551.866 142.386 551.245 143.932C550.624 145.477 550.313 147.348 550.313 149.545C550.313 151.773 550.616 153.667 551.222 155.227C551.843 156.788 552.714 157.977 553.836 158.795C554.957 159.614 556.267 160.023 557.767 160.023C558.874 160.023 559.866 159.795 560.745 159.341C561.639 158.886 562.374 158.227 562.949 157.364C563.54 156.485 563.927 155.432 564.108 154.205H573.245C573.093 156.871 572.366 159.22 571.063 161.25C569.775 163.265 567.995 164.841 565.722 165.977C563.449 167.114 560.76 167.682 557.654 167.682ZM594.073 167.682C590.482 167.682 587.391 166.955 584.8 165.5C582.224 164.03 580.239 161.955 578.845 159.273C577.452 156.576 576.755 153.386 576.755 149.705C576.755 146.114 577.452 142.962 578.845 140.25C580.239 137.538 582.202 135.424 584.732 133.909C587.277 132.394 590.262 131.636 593.686 131.636C595.989 131.636 598.133 132.008 600.118 132.75C602.118 133.477 603.861 134.576 605.345 136.045C606.845 137.515 608.012 139.364 608.845 141.591C609.679 143.803 610.095 146.394 610.095 149.364V152.023H580.618V146.023H600.982C600.982 144.629 600.679 143.394 600.073 142.318C599.467 141.242 598.626 140.402 597.55 139.795C596.489 139.174 595.255 138.864 593.845 138.864C592.376 138.864 591.073 139.205 589.936 139.886C588.815 140.553 587.936 141.455 587.3 142.591C586.664 143.712 586.338 144.962 586.323 146.341V152.045C586.323 153.773 586.641 155.265 587.277 156.523C587.929 157.78 588.845 158.75 590.027 159.432C591.209 160.114 592.611 160.455 594.232 160.455C595.308 160.455 596.292 160.303 597.186 160C598.08 159.697 598.845 159.242 599.482 158.636C600.118 158.03 600.603 157.288 600.936 156.409L609.891 157C609.436 159.152 608.505 161.03 607.095 162.636C605.702 164.227 603.898 165.47 601.686 166.364C599.489 167.242 596.952 167.682 594.073 167.682ZM624.815 120.455V167H615.134V120.455H624.815ZM640.973 120.455V167H631.291V120.455H640.973ZM663.358 167.682C659.767 167.682 656.676 166.955 654.085 165.5C651.509 164.03 649.524 161.955 648.13 159.273C646.737 156.576 646.04 153.386 646.04 149.705C646.04 146.114 646.737 142.962 648.13 140.25C649.524 137.538 651.487 135.424 654.017 133.909C656.562 132.394 659.547 131.636 662.971 131.636C665.274 131.636 667.418 132.008 669.403 132.75C671.403 133.477 673.146 134.576 674.63 136.045C676.13 137.515 677.297 139.364 678.13 141.591C678.964 143.803 679.38 146.394 679.38 149.364V152.023H649.903V146.023H670.267C670.267 144.629 669.964 143.394 669.358 142.318C668.752 141.242 667.911 140.402 666.835 139.795C665.774 139.174 664.54 138.864 663.13 138.864C661.661 138.864 660.358 139.205 659.221 139.886C658.1 140.553 657.221 141.455 656.585 142.591C655.949 143.712 655.623 144.962 655.608 146.341V152.045C655.608 153.773 655.926 155.265 656.562 156.523C657.214 157.78 658.13 158.75 659.312 159.432C660.494 160.114 661.896 160.455 663.517 160.455C664.593 160.455 665.577 160.303 666.471 160C667.365 159.697 668.13 159.242 668.767 158.636C669.403 158.03 669.888 157.288 670.221 156.409L679.176 157C678.721 159.152 677.79 161.03 676.38 162.636C674.987 164.227 673.184 165.47 670.971 166.364C668.774 167.242 666.237 167.682 663.358 167.682ZM694.1 146.818V167H684.419V132.091H693.646V138.25H694.055C694.828 136.22 696.123 134.614 697.941 133.432C699.76 132.235 701.964 131.636 704.555 131.636C706.979 131.636 709.093 132.167 710.896 133.227C712.699 134.288 714.1 135.803 715.1 137.773C716.1 139.727 716.6 142.061 716.6 144.773V167H706.919V146.5C706.934 144.364 706.388 142.697 705.282 141.5C704.176 140.288 702.653 139.682 700.714 139.682C699.411 139.682 698.26 139.962 697.26 140.523C696.275 141.083 695.502 141.902 694.941 142.977C694.396 144.038 694.116 145.318 694.1 146.818ZM738.724 167.682C735.148 167.682 732.072 166.924 729.497 165.409C726.936 163.879 724.966 161.758 723.588 159.045C722.224 156.333 721.542 153.212 721.542 149.682C721.542 146.106 722.231 142.97 723.61 140.273C725.004 137.561 726.981 135.447 729.542 133.932C732.103 132.402 735.148 131.636 738.678 131.636C741.724 131.636 744.391 132.189 746.678 133.295C748.966 134.402 750.777 135.955 752.11 137.955C753.444 139.955 754.178 142.303 754.315 145H745.178C744.921 143.258 744.239 141.856 743.133 140.795C742.042 139.72 740.61 139.182 738.838 139.182C737.338 139.182 736.027 139.591 734.906 140.409C733.8 141.212 732.936 142.386 732.315 143.932C731.694 145.477 731.383 147.348 731.383 149.545C731.383 151.773 731.686 153.667 732.292 155.227C732.913 156.788 733.784 157.977 734.906 158.795C736.027 159.614 737.338 160.023 738.838 160.023C739.944 160.023 740.936 159.795 741.815 159.341C742.709 158.886 743.444 158.227 744.019 157.364C744.61 156.485 744.997 155.432 745.178 154.205H754.315C754.163 156.871 753.436 159.22 752.133 161.25C750.845 163.265 749.065 164.841 746.792 165.977C744.519 167.114 741.83 167.682 738.724 167.682ZM775.143 167.682C771.552 167.682 768.461 166.955 765.87 165.5C763.294 164.03 761.309 161.955 759.915 159.273C758.522 156.576 757.825 153.386 757.825 149.705C757.825 146.114 758.522 142.962 759.915 140.25C761.309 137.538 763.272 135.424 765.802 133.909C768.347 132.394 771.332 131.636 774.756 131.636C777.059 131.636 779.203 132.008 781.188 132.75C783.188 133.477 784.931 134.576 786.415 136.045C787.915 137.515 789.082 139.364 789.915 141.591C790.749 143.803 791.165 146.394 791.165 149.364V152.023H761.688V146.023H782.052C782.052 144.629 781.749 143.394 781.143 142.318C780.537 141.242 779.696 140.402 778.62 139.795C777.559 139.174 776.325 138.864 774.915 138.864C773.446 138.864 772.143 139.205 771.006 139.886C769.885 140.553 769.006 141.455 768.37 142.591C767.734 143.712 767.408 144.962 767.393 146.341V152.045C767.393 153.773 767.711 155.265 768.347 156.523C768.999 157.78 769.915 158.75 771.097 159.432C772.279 160.114 773.681 160.455 775.302 160.455C776.378 160.455 777.362 160.303 778.256 160C779.15 159.697 779.915 159.242 780.552 158.636C781.188 158.03 781.673 157.288 782.006 156.409L790.961 157C790.506 159.152 789.575 161.03 788.165 162.636C786.772 164.227 784.968 165.47 782.756 166.364C780.559 167.242 778.022 167.682 775.143 167.682Z" fill="white"/>
<circle cx="16" cy="448" r="14" fill="#A21D1D" stroke="white" stroke-width="4"/>
</svg>
